<svg xmlns="http://www.w3.org/2000/svg" version="1.0" preserveAspectRatio="xMidYMid meet" viewBox="7 211.13 481.87 70.37">

<g transform="translate(0.000000,500.000000) scale(0.100000,-0.100000)" fill="#000000" stroke="none">
<path d="M348 2876 c-137 -49 -278 -213 -278 -323 0 -48 17 -63 70 -63 83 0 240 124 294 233 34 66 35 130 4 151 -27 19 -41 19 -90 2z"/>
<path d="M3792 2883 c-12 -3 -41 -21 -62 -42 -37 -35 -40 -42 -40 -91 0 -47 4 -56 35 -85 22 -22 63 -43 114 -60 44 -14 85 -33 91 -40 19 -23 4 -64 -26 -71 -45 -11 -117 2 -136 26 -16 20 -21 21 -53 10 -19 -6 -35 -18 -35 -26 0 -75 173 -132 274 -90 68 28 102 115 70 181 -18 39 -50 57 -189 111 -38 15 -51 25 -53 44 -8 51 88 71 132 27 21 -21 27 -22 57 -12 44 15 47 35 11 72 -44 43 -114 60 -190 46z"/>
<path d="M4360 2881 c-110 -34 -170 -118 -170 -238 1 -138 76 -227 205 -240 99 -10 183 36 231 127 26 48 26 181 0 229 -51 96 -170 151 -266 122z m131 -104 c68 -45 89 -143 47 -218 -52 -93 -195 -91 -244 2 -22 43 -16 144 11 181 43 59 127 75 186 35z"/>
<path d="M930 2645 l0 -235 160 0 160 0 0 40 0 40 -115 0 -115 0 0 55 0 55 100 0 100 0 0 40 0 40 -100 0 -100 0 0 60 0 60 110 0 110 0 0 40 0 40 -155 0 -155 0 0 -235z"/>
<path d="M1420 2645 l0 -235 145 0 145 0 0 40 0 40 -100 0 -100 0 0 195 0 195 -45 0 -45 0 0 -235z"/>
<path d="M2160 2645 l0 -235 45 0 45 0 0 80 0 80 58 0 c78 0 123 14 158 51 27 28 29 36 29 104 0 64 -3 77 -25 100 -44 48 -70 55 -195 55 l-115 0 0 -235z m213 144 c35 -16 49 -51 36 -88 -13 -36 -51 -53 -110 -49 l-44 3 -3 73 -3 72 50 0 c28 0 61 -5 74 -11z"/>
<path d="M2670 2645 l0 -235 145 0 145 0 0 40 0 40 -100 0 -100 0 0 195 0 195 -45 0 -45 0 0 -235z"/>
<path d="M3251 2823 c-11 -32 -45 -125 -75 -208 -30 -82 -59 -163 -65 -178 l-11 -28 52 3 52 3 15 48 15 48 85 -3 85 -3 17 -45 c16 -45 17 -45 68 -48 l50 -3 -13 38 c-8 21 -42 112 -76 203 -34 91 -67 180 -73 198 -10 30 -13 32 -57 32 l-48 0 -21 -57z m93 -140 c10 -32 21 -64 23 -70 4 -10 -9 -13 -47 -13 -38 0 -51 3 -47 13 2 6 13 38 23 70 10 31 21 57 24 57 3 0 14 -26 24 -57z"/>
<path d="M516 2759 c-19 -103 -185 -275 -309 -319 l-36 -14 20 -27 c25 -35 64 -43 114 -25 l40 14 97 -101 97 -102 1 48 c0 47 -3 52 -67 118 -63 66 -66 70 -49 87 16 16 22 12 107 -75 l89 -92 0 47 c0 44 -4 52 -60 111 -62 66 -68 79 -48 99 10 10 31 -7 105 -85 l92 -98 1 49 c0 47 -2 51 -75 126 l-75 77 15 36 c23 55 19 83 -19 124 l-33 37 -7 -35z"/>
<path d="M4815 2466 c-24 -36 -5 -68 38 -64 27 2 33 8 35 31 7 55 -44 78 -73 33z"/>
</g>
</svg>