<svg xmlns="http://www.w3.org/2000/svg" version="1.0" preserveAspectRatio="xMidYMid meet" viewBox="4.71 223.97 484.31 51.01">

<g transform="translate(0.000000,500.000000) scale(0.100000,-0.100000)" fill="#000000" stroke="none">
<path d="M750 2510 l0 -250 166 0 165 0 -3 43 -3 42 -117 3 -118 3 0 59 0 60 105 0 105 0 0 40 0 40 -105 0 -105 0 0 60 0 60 115 0 115 0 0 45 0 45 -160 0 -160 0 0 -250z"/>
<path d="M1260 2510 l0 -250 150 0 150 0 0 45 0 45 -105 0 -105 0 0 205 0 205 -45 0 -45 0 0 -250z"/>
<path d="M2030 2510 l0 -250 50 0 50 0 0 85 0 85 63 0 c45 0 75 6 107 23 59 30 82 64 88 131 4 46 0 62 -22 99 -36 63 -76 77 -221 77 l-115 0 0 -250z m245 135 c29 -28 31 -45 10 -84 -18 -35 -32 -41 -101 -41 l-54 0 0 75 0 75 60 0 c51 0 65 -4 85 -25z"/>
<path d="M2570 2510 l0 -250 150 0 150 0 0 45 0 45 -105 0 -105 0 0 205 0 205 -45 0 -45 0 0 -250z"/>
<path d="M3195 2750 c-7 -11 -61 -157 -135 -363 -22 -59 -42 -112 -45 -117 -4 -6 17 -10 49 -10 l55 0 17 55 18 56 89 -3 89 -3 20 -52 19 -53 50 0 c27 0 49 2 49 5 0 5 -114 322 -153 425 l-25 65 -45 3 c-25 2 -48 -2 -52 -8z m80 -213 c14 -37 25 -70 25 -72 0 -3 -25 -5 -55 -5 -30 0 -55 2 -55 3 0 4 34 104 45 136 8 19 11 14 40 -62z"/>
<path d="M3698 2739 c-88 -46 -95 -171 -14 -224 13 -8 61 -29 107 -45 73 -25 109 -49 109 -70 0 -18 -30 -43 -60 -49 -48 -10 -101 3 -125 31 -19 23 -22 23 -58 9 -48 -18 -48 -39 2 -84 90 -81 269 -67 317 26 20 38 20 111 0 142 -18 28 -85 64 -166 90 -88 28 -111 59 -68 89 37 26 118 17 139 -16 6 -9 89 10 89 20 0 3 -9 19 -20 37 -39 63 -173 86 -252 44z"/>
<path d="M4284 2740 c-22 -10 -55 -35 -73 -56 -104 -127 -65 -342 74 -405 50 -23 152 -25 203 -3 43 17 97 67 118 107 64 122 15 294 -100 352 -62 31 -159 33 -222 5z m206 -105 c59 -57 67 -163 16 -230 -32 -42 -61 -55 -119 -55 -86 0 -141 62 -141 160 0 107 56 164 157 157 46 -3 63 -9 87 -32z"/>
<path d="M210 2692 c-43 -21 -122 -98 -145 -141 -32 -62 -20 -110 28 -111 90 -1 249 178 219 245 -14 30 -50 33 -102 7z"/>
<path d="M342 2596 c-28 -63 -104 -141 -169 -172 -57 -29 -62 -42 -21 -62 19 -9 33 -9 54 -2 26 10 32 7 97 -57 55 -54 68 -63 63 -43 -3 14 -6 30 -6 37 0 6 -18 28 -40 49 -42 40 -49 58 -26 67 8 3 34 -19 65 -54 29 -32 56 -59 62 -59 5 0 9 11 9 25 0 17 -16 43 -47 76 -37 40 -44 52 -34 62 10 9 25 -1 72 -53 l59 -65 0 36 c0 28 -9 43 -49 83 -43 43 -48 52 -40 73 14 38 11 68 -10 87 -19 17 -20 16 -39 -28z"/>
<path d="M4818 2338 c-24 -20 -28 -44 -12 -67 35 -49 109 5 76 55 -12 19 -47 25 -64 12z"/>
</g>
</svg>