<svg xmlns="http://www.w3.org/2000/svg" xmlns:xlink="http://www.w3.org/1999/xlink" width="500" zoomAndPan="magnify" viewBox="0 0 375 374.999991" height="500" preserveAspectRatio="xMidYMid meet" version="1.0"><defs><clipPath id="af5715625d"><path d="M 22 0 L 358.640625 0 L 358.640625 369 L 22 369 Z M 22 0 " clip-rule="nonzero"/></clipPath></defs><g clip-path="url(#af5715625d)"><path fill="#000000" d="M 317.195312 9.601562 C 266.804688 20.652344 147.808594 47.113281 143.003906 48.230469 C 136.859375 49.679688 123.675781 50.90625 123.675781 67.652344 L 123.675781 290.265625 C 109.820312 282.449219 88.703125 281.445312 67.585938 289.035156 C 36.300781 300.3125 16.96875 326.101562 24.457031 346.753906 C 31.941406 367.410156 63.339844 375 94.511719 363.722656 C 123.5625 353.230469 142.332031 330.230469 138.871094 310.472656 L 138.871094 142.117188 C 138.871094 132.851562 138.644531 120.90625 162.78125 115.769531 C 173.839844 113.425781 324.34375 79.933594 324.34375 79.933594 L 324.34375 235.5625 C 310.488281 227.523438 289.148438 226.40625 267.808594 234.109375 C 236.523438 245.386719 217.195312 271.175781 224.679688 291.828125 C 232.164062 312.480469 263.5625 320.074219 294.734375 308.796875 C 323.5625 298.414062 342.109375 275.75 339.207031 256.101562 L 339.539062 256.101562 L 339.539062 41.863281 C 339.539062 15.292969 358.3125 14.625 358.3125 14.625 L 358.3125 0 Z M 317.195312 9.601562 " fill-opacity="1" fill-rule="nonzero"/></g></svg>