<?xml version="1.0" encoding="UTF-8"?>
<svg xmlns="http://www.w3.org/2000/svg" xmlns:xlink="http://www.w3.org/1999/xlink" width="3000px" height="350px" viewBox="0 0 3011 350" version="1.1">
<g id="surface1">
<path style=" stroke:none;fill-rule:nonzero;fill:rgb(0%,0%,0%);fill-opacity:1;" d="M 121.976562 5.410156 C 60.660156 17.433594 25.195312 51.699219 25.195312 99.191406 C 25.195312 156.304688 54.050781 177.34375 162.851562 198.988281 C 245.808594 215.820312 268.652344 227.242188 268.652344 254.894531 C 268.652344 267.519531 263.242188 275.335938 248.214844 285.554688 C 231.382812 296.976562 219.960938 299.382812 181.488281 299.382812 C 132.796875 299.382812 79.898438 286.757812 55.25 269.324219 C 40.222656 258.503906 40.222656 258.503906 23.390625 281.347656 L 7.160156 304.191406 L 26.398438 316.214844 C 67.273438 340.863281 103.941406 349.277344 173.074219 349.878906 C 235.589844 350.480469 241.601562 349.277344 274.664062 332.445312 C 328.765625 304.792969 346.796875 255.496094 319.746094 211.011719 C 302.917969 183.355469 268.652344 168.328125 187.5 152.695312 C 103.34375 136.464844 83.503906 126.246094 86.511719 99.792969 C 89.515625 67.332031 112.960938 55.910156 177.882812 55.910156 C 225.972656 55.910156 236.792969 58.3125 265.644531 72.742188 L 298.707031 88.972656 L 311.933594 72.140625 C 319.746094 63.121094 325.757812 52.902344 325.757812 49.296875 C 325.757812 38.476562 260.835938 12.023438 217.554688 5.410156 C 173.074219 -1.804688 159.246094 -1.804688 121.976562 5.410156 Z M 121.976562 5.410156 "/>
<path style=" stroke:none;fill-rule:nonzero;fill:rgb(0%,0%,0%);fill-opacity:1;" d="M 506.097656 173.136719 L 421.9375 341.464844 L 451.996094 341.464844 C 482.050781 341.464844 482.652344 340.863281 495.277344 314.410156 L 508.5 287.359375 L 619.710938 288.5625 L 731.519531 290.363281 L 745.34375 315.613281 C 759.171875 340.863281 760.375 341.464844 789.226562 341.464844 L 819.285156 341.464844 L 647.363281 4.808594 L 590.253906 4.808594 Z M 664.191406 158.105469 L 704.46875 239.265625 L 619.710938 239.265625 C 568.011719 239.265625 536.152344 236.859375 537.355469 233.253906 C 542.164062 218.824219 617.90625 76.949219 620.3125 76.949219 C 622.113281 76.949219 641.953125 113.621094 664.191406 158.105469 Z M 664.191406 158.105469 "/>
<path style=" stroke:none;fill-rule:nonzero;fill:rgb(0%,0%,0%);fill-opacity:1;" d="M 914.863281 175.542969 L 914.863281 341.464844 L 974.976562 341.464844 L 976.179688 227.242188 L 977.980469 113.621094 L 1044.105469 227.242188 C 1095.199219 315.011719 1113.234375 341.464844 1122.25 341.464844 C 1131.871094 341.464844 1154.113281 306.59375 1227.449219 179.148438 C 1278.542969 90.175781 1322.425781 17.433594 1325.433594 16.832031 C 1327.835938 16.832031 1329.640625 89.574219 1329.640625 179.148438 L 1329.640625 341.464844 L 1383.742188 341.464844 L 1383.742188 221.230469 L 1457.679688 221.230469 C 1522 221.230469 1534.625 219.425781 1558.070312 207.402344 C 1627.199219 172.535156 1629 62.519531 1561.074219 24.648438 C 1537.628906 11.421875 1532.21875 10.820312 1402.375 12.625 L 1267.722656 13.828125 L 1197.390625 134.058594 C 1158.921875 200.1875 1124.65625 253.691406 1121.652344 253.691406 C 1118.644531 253.089844 1084.980469 198.988281 1046.507812 133.460938 L 976.777344 13.828125 L 945.519531 12.023438 L 914.863281 10.21875 Z M 1538.230469 73.34375 C 1552.058594 85.367188 1555.0625 92.578125 1555.0625 116.027344 C 1555.0625 139.472656 1552.058594 146.683594 1538.230469 158.707031 C 1522.601562 171.933594 1516.589844 173.136719 1452.269531 173.136719 L 1383.742188 173.136719 L 1383.742188 58.914062 L 1452.269531 58.914062 C 1516.589844 58.914062 1522.601562 60.117188 1538.230469 73.34375 Z M 1538.230469 73.34375 "/>
<path style=" stroke:none;fill-rule:nonzero;fill:rgb(0%,0%,0%);fill-opacity:1;" d="M 1720.371094 176.140625 L 1720.371094 341.464844 L 2008.914062 341.464844 L 2008.914062 293.371094 L 1774.472656 293.371094 L 1774.472656 10.820312 L 1720.371094 10.820312 Z M 1720.371094 176.140625 "/>
<path style=" stroke:none;fill-rule:nonzero;fill:rgb(0%,0%,0%);fill-opacity:1;" d="M 2111.105469 176.140625 L 2111.105469 341.464844 L 2165.207031 341.464844 L 2165.207031 10.820312 L 2111.105469 10.820312 Z M 2111.105469 176.140625 "/>
<path style=" stroke:none;fill-rule:nonzero;fill:rgb(0%,0%,0%);fill-opacity:1;" d="M 2285.433594 176.140625 L 2285.433594 341.464844 L 2339.535156 341.464844 L 2339.535156 215.21875 L 2543.917969 215.21875 L 2543.917969 167.125 L 2339.535156 167.125 L 2339.535156 58.914062 L 2573.972656 58.914062 L 2573.972656 10.820312 L 2285.433594 10.820312 Z M 2285.433594 176.140625 "/>
<path style=" stroke:none;fill-rule:nonzero;fill:rgb(0%,0%,0%);fill-opacity:1;" d="M 2732.671875 110.015625 L 2808.410156 209.207031 L 2808.410156 341.464844 L 2862.511719 341.464844 L 2862.511719 204.398438 L 2794.585938 109.414062 L 2727.261719 13.828125 L 2657.527344 10.21875 Z M 2732.671875 110.015625 "/>
<path style=" stroke:none;fill-rule:nonzero;fill:rgb(0%,0%,0%);fill-opacity:1;" d="M 2901.585938 69.132812 C 2878.144531 101.597656 2858.90625 129.851562 2857.703125 132.257812 C 2854.699219 139.472656 2880.546875 173.738281 2886.558594 170.128906 C 2891.367188 167.125 2994.761719 33.0625 3003.175781 18.035156 C 3006.183594 12.625 2999.570312 10.820312 2975.523438 10.820312 L 2943.0625 10.820312 Z M 2901.585938 69.132812 "/>
</g>
</svg>
