<svg xmlns="http://www.w3.org/2000/svg" xmlns:xlink="http://www.w3.org/1999/xlink" zoomAndPan="magnify" preserveAspectRatio="xMidYMid meet" version="1.0" viewBox="5.45 153.12 354.95 51.92"><defs><g/><clipPath id="443dce886a"><path d="M 5.449219 153.121094 L 29 153.121094 L 29 205.042969 L 5.449219 205.042969 Z M 5.449219 153.121094 " clip-rule="nonzero"/></clipPath><clipPath id="9f552ba158"><path d="M 27 153.121094 L 74.679688 153.121094 L 74.679688 205.042969 L 27 205.042969 Z M 27 153.121094 " clip-rule="nonzero"/></clipPath></defs><g clip-path="url(#443dce886a)"><path fill="#000000" d="M 16.988281 153.121094 C 17.367188 153.121094 17.742188 153.164062 18.121094 153.246094 C 18.496094 153.332031 18.867188 153.453125 19.238281 153.621094 C 19.609375 153.785156 19.976562 153.992188 20.335938 154.238281 C 20.699219 154.488281 21.054688 154.773438 21.402344 155.097656 C 21.753906 155.421875 22.09375 155.785156 22.425781 156.1875 C 22.761719 156.585938 23.085938 157.023438 23.398438 157.496094 C 23.710938 157.96875 24.015625 158.476562 24.308594 159.015625 C 24.601562 159.554688 24.878906 160.125 25.148438 160.726562 C 25.414062 161.328125 25.667969 161.957031 25.90625 162.613281 C 26.148438 163.269531 26.371094 163.953125 26.582031 164.660156 C 26.792969 165.367188 26.984375 166.09375 27.164062 166.84375 C 27.34375 167.59375 27.503906 168.363281 27.648438 169.148438 C 27.792969 169.933594 27.921875 170.730469 28.03125 171.546875 C 28.140625 172.359375 28.230469 173.183594 28.304688 174.015625 C 28.378906 174.851562 28.433594 175.691406 28.472656 176.535156 C 28.507812 177.382812 28.527344 178.230469 28.527344 179.082031 C 28.527344 179.929688 28.507812 180.78125 28.472656 181.625 C 28.433594 182.472656 28.378906 183.3125 28.304688 184.144531 C 28.230469 184.980469 28.140625 185.804688 28.03125 186.617188 C 27.921875 187.429688 27.792969 188.230469 27.648438 189.015625 C 27.503906 189.800781 27.34375 190.570312 27.164062 191.320312 C 26.984375 192.070312 26.792969 192.796875 26.582031 193.503906 C 26.371094 194.210938 26.148438 194.894531 25.90625 195.550781 C 25.667969 196.207031 25.414062 196.835938 25.148438 197.4375 C 24.878906 198.039062 24.601562 198.609375 24.308594 199.148438 C 24.015625 199.6875 23.710938 200.195312 23.398438 200.664062 C 23.085938 201.136719 22.761719 201.574219 22.425781 201.976562 C 22.09375 202.375 21.753906 202.738281 21.402344 203.066406 C 21.054688 203.390625 20.699219 203.675781 20.335938 203.921875 C 19.976562 204.171875 19.609375 204.375 19.238281 204.542969 C 18.867188 204.707031 18.496094 204.832031 18.121094 204.914062 C 17.742188 205 17.367188 205.039062 16.988281 205.039062 C 16.609375 205.039062 16.234375 205 15.855469 204.914062 C 15.480469 204.832031 15.109375 204.707031 14.738281 204.542969 C 14.367188 204.375 14 204.171875 13.640625 203.921875 C 13.277344 203.675781 12.921875 203.390625 12.574219 203.066406 C 12.222656 202.738281 11.882812 202.375 11.550781 201.976562 C 11.214844 201.574219 10.890625 201.136719 10.578125 200.664062 C 10.265625 200.195312 9.960938 199.6875 9.667969 199.148438 C 9.375 198.609375 9.097656 198.039062 8.828125 197.4375 C 8.5625 196.835938 8.308594 196.207031 8.070312 195.550781 C 7.828125 194.894531 7.605469 194.210938 7.394531 193.503906 C 7.183594 192.796875 6.992188 192.070312 6.8125 191.320312 C 6.632812 190.570312 6.472656 189.800781 6.328125 189.015625 C 6.183594 188.230469 6.054688 187.429688 5.945312 186.617188 C 5.835938 185.804688 5.746094 184.980469 5.671875 184.144531 C 5.597656 183.3125 5.542969 182.472656 5.503906 181.625 C 5.46875 180.78125 5.449219 179.929688 5.449219 179.082031 C 5.449219 178.230469 5.46875 177.382812 5.503906 176.535156 C 5.542969 175.691406 5.597656 174.851562 5.671875 174.015625 C 5.746094 173.183594 5.835938 172.359375 5.945312 171.546875 C 6.054688 170.730469 6.183594 169.933594 6.328125 169.148438 C 6.472656 168.363281 6.632812 167.59375 6.8125 166.84375 C 6.992188 166.09375 7.183594 165.367188 7.394531 164.660156 C 7.605469 163.953125 7.828125 163.269531 8.070312 162.613281 C 8.308594 161.957031 8.5625 161.328125 8.828125 160.726562 C 9.097656 160.125 9.375 159.554688 9.667969 159.015625 C 9.960938 158.476562 10.265625 157.96875 10.578125 157.496094 C 10.890625 157.023438 11.214844 156.585938 11.550781 156.1875 C 11.882812 155.785156 12.222656 155.421875 12.574219 155.097656 C 12.921875 154.773438 13.277344 154.488281 13.640625 154.238281 C 14 153.992188 14.367188 153.785156 14.738281 153.621094 C 15.109375 153.453125 15.480469 153.332031 15.855469 153.246094 C 16.234375 153.164062 16.609375 153.121094 16.988281 153.121094 Z M 16.988281 153.121094 " fill-opacity="1" fill-rule="nonzero"/></g><g clip-path="url(#9f552ba158)"><path fill="#000000" d="M 34.296875 179.082031 C 34.296875 189.003906 31.9375 198.992188 27.363281 205.039062 L 34.296875 205.039062 C 38.351562 205.039062 41.914062 200.320312 43.96875 193.199219 L 68.910156 202.15625 L 68.910156 196.027344 L 45.203125 187.511719 C 45.472656 185.738281 45.667969 183.886719 45.761719 181.964844 L 74.679688 181.964844 L 74.679688 176.199219 L 45.757812 176.199219 C 45.667969 174.277344 45.472656 172.421875 45.199219 170.652344 L 68.910156 162.136719 L 68.910156 156.007812 L 43.96875 164.964844 C 41.914062 157.84375 38.351562 153.121094 34.296875 153.121094 L 27.363281 153.121094 C 31.9375 159.171875 34.296875 169.160156 34.296875 179.082031 Z M 34.296875 179.082031 " fill-opacity="1" fill-rule="nonzero"/></g><g fill="#000000" fill-opacity="1"><g transform="translate(88.024452, 193.379109)"><g/></g></g><g fill="#000000" fill-opacity="1"><g transform="translate(106.165076, 193.379109)"><g><path d="M 8.21875 -5.550781 L 8.21875 -12.503906 L 21.117188 -12.503906 L 21.117188 -18.054688 L 8.21875 -18.054688 L 8.21875 -25.007812 L 22.472656 -25.007812 L 22.472656 -30.601562 L 2.40625 -30.601562 L 2.40625 0 L 22.734375 0 L 22.734375 -5.550781 Z M 8.21875 -5.550781 "/></g></g></g><g fill="#000000" fill-opacity="1"><g transform="translate(137.420108, 193.379109)"><g><path d="M 8.21875 -5.550781 L 8.21875 -30.601562 L 2.40625 -30.601562 L 2.40625 0 L 20.765625 0 L 20.765625 -5.550781 Z M 8.21875 -5.550781 "/></g></g></g><g fill="#000000" fill-opacity="1"><g transform="translate(166.271033, 193.379109)"><g/></g></g><g fill="#000000" fill-opacity="1"><g transform="translate(184.412795, 193.379109)"><g><path d="M 13.726562 -30.601562 L 2.40625 -30.601562 L 2.40625 0 L 8.21875 0 L 8.21875 -10.492188 L 13.726562 -10.492188 C 20.546875 -10.492188 24.351562 -14.953125 24.351562 -20.546875 C 24.351562 -26.144531 20.546875 -30.601562 13.726562 -30.601562 Z M 13.597656 -16.042969 L 8.21875 -16.042969 L 8.21875 -25.007812 L 13.597656 -25.007812 C 16.480469 -25.007812 18.363281 -23.171875 18.363281 -20.546875 C 18.363281 -17.925781 16.480469 -16.042969 13.597656 -16.042969 Z M 13.597656 -16.042969 "/></g></g></g><g fill="#000000" fill-opacity="1"><g transform="translate(216.848021, 193.379109)"><g><path d="M 8.21875 -5.550781 L 8.21875 -30.601562 L 2.40625 -30.601562 L 2.40625 0 L 20.765625 0 L 20.765625 -5.550781 Z M 8.21875 -5.550781 "/></g></g></g><g fill="#000000" fill-opacity="1"><g transform="translate(245.698942, 193.379109)"><g><path d="M 22.164062 0 L 28.765625 0 L 17.574219 -30.601562 L 11.628906 -30.601562 L 0.4375 0 L 7.039062 0 L 9.398438 -6.90625 L 19.761719 -6.90625 Z M 11.367188 -12.460938 L 14.601562 -21.859375 L 17.835938 -12.460938 Z M 11.367188 -12.460938 "/></g></g></g><g fill="#000000" fill-opacity="1"><g transform="translate(281.674746, 193.379109)"><g><path d="M 13.816406 -18.40625 C 9.003906 -19.890625 7.871094 -20.808594 7.871094 -22.253906 C 7.871094 -24.261719 10.097656 -25.136719 12.546875 -25.09375 C 14.777344 -25.050781 17.269531 -24 17.660156 -22.078125 L 22.820312 -24 C 21.945312 -28.371094 17.179688 -30.863281 12.503906 -30.863281 C 4.632812 -30.863281 1.703125 -26.054688 1.703125 -22.035156 C 1.703125 -17.53125 4.589844 -14.863281 11.628906 -12.765625 C 16.613281 -11.277344 18.097656 -10.492188 18.097656 -8.65625 C 18.097656 -6.777344 16.175781 -5.378906 12.632812 -5.378906 C 9.441406 -5.378906 6.777344 -6.820312 6.207031 -9.136719 L 0.875 -7.082031 C 1.75 -2.667969 7.167969 0.523438 13.160156 0.523438 C 20.765625 0.523438 24.308594 -3.804688 24.308594 -8.875 C 24.308594 -14.558594 19.847656 -16.570312 13.816406 -18.40625 Z M 13.816406 -18.40625 "/></g></g></g><g fill="#000000" fill-opacity="1"><g transform="translate(313.847703, 193.379109)"><g><path d="M 16.175781 -30.863281 C 7.386719 -30.863281 1.3125 -24.042969 1.3125 -15.257812 C 1.3125 -6.46875 7.386719 0.351562 16.175781 0.351562 C 24.960938 0.351562 30.996094 -6.46875 30.996094 -15.257812 C 30.996094 -24.042969 24.960938 -30.863281 16.175781 -30.863281 Z M 16.175781 -5.507812 C 10.578125 -5.507812 7.257812 -9.707031 7.257812 -15.257812 C 7.257812 -20.851562 10.578125 -25.050781 16.175781 -25.050781 C 21.726562 -25.050781 25.050781 -20.851562 25.050781 -15.257812 C 25.050781 -9.707031 21.726562 -5.507812 16.175781 -5.507812 Z M 16.175781 -5.507812 "/></g></g></g><g fill="#000000" fill-opacity="1"><g transform="translate(352.926985, 193.379109)"><g><path d="M 4.371094 -5.507812 C 2.710938 -5.507812 1.3125 -4.152344 1.3125 -2.449219 C 1.3125 -0.742188 2.710938 0.613281 4.371094 0.613281 C 6.078125 0.613281 7.476562 -0.742188 7.476562 -2.449219 C 7.476562 -4.152344 6.078125 -5.507812 4.371094 -5.507812 Z M 4.371094 -5.507812 "/></g></g></g></svg>